<?xml version="1.0" encoding="utf-8"?>
<svg width="24px" height="24px" viewBox="0 0 24 24" version="1.1" xmlns:xlink="http://www.w3.org/1999/xlink" xmlns="http://www.w3.org/2000/svg">
  <defs>
    <path d="M24 0L24 0L24 24L0 24L0 0L24 0Z" id="path_1" />
    <clipPath id="clip_1">
      <use xlink:href="#path_1" />
    </clipPath>
  </defs>
  <g id="Notification" clip-path="url(#clip_1)">
    <path d="M24 0L24 0L24 24L0 24L0 0L24 0Z" id="Notification" fill="none" stroke="none" />
    <path d="M12 0C10.9444 0 10.08 0.864375 10.08 1.92C10.08 2.1675 10.1287 2.4075 10.215 2.625C7.515 3.32625 5.76 5.67188 5.76 8.64C5.76 12.3994 4.8375 14.1112 3.96 15.075C3.52125 15.5569 3.08813 15.8494 2.715 16.125C2.5275 16.2619 2.35687 16.3988 2.205 16.575C2.05313 16.7512 1.92 17.0025 1.92 17.28C1.92 17.94 2.325 18.5006 2.895 18.87C3.465 19.2394 4.21313 19.4775 5.115 19.665C6.285 19.9069 7.72875 20.0344 9.315 20.1C9.195 20.4187 9.12 20.7619 9.12 21.12C9.12 22.7044 10.4156 24 12 24C13.5844 24 14.88 22.7044 14.88 21.12C14.88 20.76 14.8069 20.4169 14.685 20.1C16.2712 20.0344 17.715 19.9069 18.885 19.665C19.7869 19.4775 20.535 19.2394 21.105 18.87C21.675 18.5006 22.08 17.94 22.08 17.28C22.08 17.0025 21.9469 16.7512 21.795 16.575C21.6431 16.3988 21.4725 16.2619 21.285 16.125C20.9119 15.8494 20.4788 15.5569 20.04 15.075C19.1625 14.1112 18.24 12.3994 18.24 8.64C18.24 5.67375 16.4813 3.33 13.785 2.625C13.8713 2.4075 13.92 2.1675 13.92 1.92C13.92 0.864375 13.0556 0 12 0L12 0ZM12 0.96C12.5363 0.96 12.96 1.38375 12.96 1.92C12.96 2.45625 12.5363 2.88 12 2.88C11.4637 2.88 11.04 2.45625 11.04 1.92C11.04 1.38375 11.4637 0.96 12 0.96L12 0.96ZM13.125 3.45C15.6844 3.90562 17.28 5.88375 17.28 8.64C17.28 12.5606 18.2775 14.5744 19.32 15.72C19.8412 16.2919 20.3681 16.65 20.715 16.905C20.8875 17.0325 21.0169 17.1394 21.075 17.205C21.1331 17.2706 21.12 17.265 21.12 17.28C21.12 17.58 20.9812 17.7994 20.58 18.06C20.1787 18.3206 19.5262 18.5625 18.69 18.735C17.0175 19.0819 14.6362 19.2 12 19.2C9.36375 19.2 6.9825 19.0819 5.31 18.735C4.47375 18.5625 3.82125 18.3206 3.42 18.06C3.01875 17.7994 2.88 17.58 2.88 17.28C2.88 17.265 2.86687 17.2706 2.925 17.205C2.98313 17.1394 3.1125 17.0325 3.285 16.905C3.63187 16.65 4.15875 16.2919 4.68 15.72C5.7225 14.5744 6.72 12.5606 6.72 8.64C6.72 5.88562 8.3175 3.9225 10.875 3.465C11.1938 3.69937 11.5781 3.84 12 3.84C12.4256 3.84 12.8063 3.68813 13.125 3.45L13.125 3.45ZM10.35 20.13C10.8881 20.1412 11.4356 20.16 12 20.16C12.5644 20.16 13.1119 20.1412 13.65 20.13C13.8206 20.4187 13.92 20.76 13.92 21.12C13.92 22.1869 13.0669 23.04 12 23.04C10.9331 23.04 10.08 22.1869 10.08 21.12C10.08 20.7562 10.1756 20.4187 10.35 20.13L10.35 20.13Z" id="Shape" fill="#FFFFFF" fill-rule="evenodd" stroke="none" />
  </g>
</svg>