<?xml version="1.0" encoding="utf-8"?>
<svg width="24px" height="24px" viewBox="0 0 24 24" version="1.1" xmlns:xlink="http://www.w3.org/1999/xlink" xmlns="http://www.w3.org/2000/svg">
  <defs>
    <path d="M24 0L24 0L24 24L0 24L0 0L24 0Z" id="path_1" />
    <clipPath id="clip_1">
      <use xlink:href="#path_1" />
    </clipPath>
  </defs>
  <g id="Settings" clip-path="url(#clip_1)">
    <path d="M24 0L24 0L24 24L0 24L0 0L24 0Z" id="Settings" fill="none" stroke="none" />
    <path d="M10.6584 0.96C10.4235 0.960124 10.2231 1.13032 10.185 1.36219L9.71813 4.22062C9.15672 4.38393 8.6214 4.60429 8.11687 4.87875L5.75812 3.19406C5.56743 3.05789 5.30629 3.07929 5.14031 3.24469L3.27281 5.11031C3.10808 5.27516 3.08554 5.53452 3.21937 5.72531L4.87875 8.09906C4.60006 8.60653 4.37482 9.14487 4.2075 9.71156L1.36125 10.185C1.13013 10.2239 0.960909 10.4241 0.960937 10.6584L0.960937 13.2984C0.960512 13.5313 1.1273 13.7309 1.35656 13.7719L4.20469 14.2762C4.3711 14.842 4.59491 15.3807 4.87406 15.8887L3.19406 18.2391C3.05789 18.4298 3.07929 18.6909 3.24469 18.8569L5.11125 20.7244C5.27572 20.8889 5.53449 20.9118 5.72531 20.7787L8.10375 19.1137C8.60976 19.3898 9.1464 19.6118 9.70969 19.7766L10.185 22.6387C10.2235 22.8702 10.4238 23.0399 10.6584 23.04L13.2984 23.04C13.5316 23.0403 13.7313 22.8731 13.7719 22.6434L14.2809 19.77C14.8419 19.6027 15.376 19.3775 15.8794 19.0997L18.2737 20.7797C18.4645 20.9135 18.7239 20.891 18.8888 20.7262L20.7553 18.8578C20.9215 18.6913 20.9425 18.429 20.805 18.2381L19.0978 15.8681C19.3708 15.3672 19.5907 14.8363 19.7541 14.2791L22.6425 13.7728C22.8721 13.7323 23.0394 13.5326 23.0391 13.2994L23.0391 10.6594C23.0389 10.4244 22.8688 10.2241 22.6369 10.1859L19.7531 9.71437C19.5886 9.15784 19.3681 8.62787 19.095 8.12719L20.7787 5.72812C20.9126 5.53733 20.89 5.27798 20.7253 5.11312L18.8578 3.24656C18.6913 3.08042 18.429 3.05939 18.2381 3.19687L15.8747 4.89656C15.3711 4.61991 14.8367 4.39584 14.2744 4.23L13.7719 1.3575C13.7317 1.1275 13.5319 0.959737 13.2984 0.96L10.6584 0.96L10.6584 0.96ZM11.0672 1.92L12.8953 1.92L13.3734 4.64906C13.4059 4.83606 13.5456 4.98636 13.7297 5.0325C14.4317 5.20744 15.091 5.48474 15.6928 5.84906C15.8573 5.94872 16.0654 5.9406 16.2216 5.82844L18.4678 4.21406L19.7606 5.50687L18.1612 7.78594C18.0521 7.94127 18.0448 8.14632 18.1425 8.30906C18.5032 8.90951 18.7768 9.56466 18.9516 10.2628C18.9981 10.4487 19.1506 10.589 19.3397 10.62L22.0791 11.0681L22.0791 12.8962L19.3341 13.3781C19.1469 13.4113 18.9969 13.5517 18.9516 13.7362C18.7788 14.4335 18.5051 15.0886 18.1444 15.6891C18.0454 15.8535 18.0539 16.0611 18.1659 16.2169L19.7878 18.4678L18.495 19.7616L16.2197 18.165C16.0636 18.0556 15.8575 18.049 15.6947 18.1481C15.0959 18.5124 14.4359 18.7911 13.7362 18.9684C13.553 19.0146 13.414 19.164 13.3809 19.35L12.8962 22.08L11.0653 22.08L10.6134 19.3622C10.582 19.1732 10.4412 19.0211 10.2553 18.975C9.55289 18.8019 8.8906 18.525 8.28469 18.1613C8.12217 18.0639 7.91762 18.0713 7.7625 18.18L5.505 19.7616L4.21125 18.4659L5.80687 16.2356C5.91833 16.0794 5.92608 15.8719 5.82656 15.7078C5.45887 15.1002 5.18079 14.438 5.00531 13.7325C4.95945 13.5489 4.81003 13.4094 4.62375 13.3762L1.92094 12.8962L1.92094 11.0653L4.62187 10.6162C4.81057 10.585 4.96269 10.4446 5.00906 10.2591C5.18605 9.55111 5.464 8.88899 5.83031 8.28281C5.92901 8.12021 5.92239 7.91467 5.81344 7.75875L4.23656 5.505L5.53125 4.21125L7.76906 5.81062C7.92464 5.92156 8.13121 5.92966 8.295 5.83125C8.89771 5.46926 9.56153 5.1946 10.2647 5.02219C10.4515 4.97619 10.5929 4.82306 10.6237 4.63312L11.0672 1.92L11.0672 1.92ZM12 8.16C9.88491 8.16 8.16 9.88491 8.16 12C8.16 14.1151 9.88491 15.84 12 15.84C14.1151 15.84 15.84 14.1151 15.84 12C15.84 9.88491 14.1151 8.16 12 8.16L12 8.16ZM12 9.12C13.5963 9.12 14.88 10.4037 14.88 12C14.88 13.5963 13.5963 14.88 12 14.88C10.4037 14.88 9.12 13.5963 9.12 12C9.12 10.4037 10.4037 9.12 12 9.12L12 9.12Z" id="Shape" fill="#FFFFFF" fill-rule="evenodd" stroke="none" />
  </g>
</svg>