<svg width="100" height="32" viewBox="0 0 100 32" fill="none" xmlns="http://www.w3.org/2000/svg">
<circle cx="16" cy="16.0001" r="16" fill="#F10000"/>
<path d="M16 -2.74023e-05C24.8366 -2.77885e-05 32 7.16341 32 16C32 16 32 16 9.00002 16.0001C0.163466 16.0001 0 16 0 16C-3.86265e-07 7.16341 7.16344 -2.7016e-05 16 -2.74023e-05Z" fill="white"/>
<path d="M44.4055 12.5078C44.3459 11.9496 44.0945 11.5149 43.6513 11.2038C43.2124 10.8928 42.6413 10.7372 41.9382 10.7372C41.4439 10.7372 41.0199 10.8118 40.6662 10.9609C40.3125 11.1101 40.0419 11.3125 39.8544 11.5682C39.6669 11.8239 39.571 12.1158 39.5668 12.4439C39.5668 12.7166 39.6286 12.9531 39.7521 13.1534C39.88 13.3537 40.0526 13.5241 40.2699 13.6648C40.4872 13.8011 40.728 13.9162 40.9922 14.0099C41.2564 14.1037 41.5227 14.1825 41.7912 14.2464L43.0185 14.5533C43.5128 14.6683 43.9879 14.8239 44.4439 15.0199C44.9041 15.2159 45.3153 15.4631 45.6776 15.7614C46.044 16.0597 46.3338 16.4197 46.5469 16.8416C46.7599 17.2635 46.8665 17.7578 46.8665 18.3246C46.8665 19.0916 46.6705 19.767 46.2784 20.3509C45.8864 20.9304 45.3196 21.3842 44.5781 21.7124C43.8409 22.0362 42.9482 22.1982 41.8999 22.1982C40.8814 22.1982 39.9972 22.0405 39.2472 21.7251C38.5014 21.4098 37.9176 20.9496 37.4957 20.3445C37.0781 19.7393 36.8523 19.0021 36.8182 18.1328H39.1513C39.1854 18.5888 39.326 18.968 39.5732 19.2706C39.8203 19.5732 40.142 19.799 40.5384 19.9482C40.9389 20.0973 41.3864 20.1719 41.8807 20.1719C42.3963 20.1719 42.848 20.0952 43.2358 19.9418C43.6278 19.7841 43.9347 19.5668 44.1562 19.2898C44.3778 19.0085 44.4908 18.6804 44.495 18.3054C44.4908 17.9645 44.3906 17.6832 44.1946 17.4616C43.9986 17.2358 43.7237 17.0483 43.37 16.8991C43.0206 16.7457 42.6115 16.6094 42.1428 16.4901L40.6534 16.1065C39.5753 15.8295 38.723 15.4098 38.0966 14.8473C37.4744 14.2805 37.1634 13.5284 37.1634 12.5909C37.1634 11.8196 37.3722 11.1442 37.7898 10.5646C38.2116 9.98509 38.7848 9.53551 39.5092 9.21591C40.2337 8.89204 41.054 8.73011 41.9702 8.73011C42.8991 8.73011 43.7131 8.89204 44.4119 9.21591C45.1151 9.53551 45.6669 9.98082 46.0675 10.5518C46.468 11.1186 46.6747 11.7706 46.6875 12.5078H44.4055ZM48.9806 8.90909H51.8826L55.769 18.3949H55.9224L59.8088 8.90909H62.7108V22H60.4352V13.0064H60.3137L56.6958 21.9616H54.9956L51.3777 12.9872H51.2562V22H48.9806V8.90909ZM66.9743 22H64.443L69.0517 8.90909H71.9792L76.5943 22H74.063L70.5666 11.5938H70.4643L66.9743 22ZM67.0574 16.8672H73.9608V18.772H67.0574V16.8672ZM76.1612 10.897V8.90909H86.6058V10.897H82.5597V22H80.2074V10.897H76.1612ZM88.044 10.897V8.90909H98.4886V10.897H94.4425V22H92.0902V10.897H88.044Z" fill="white"/>
</svg>