<?xml version="1.0" encoding="utf-8"?>
<svg width="24px" height="24px" viewBox="0 0 24 24" version="1.1" xmlns:xlink="http://www.w3.org/1999/xlink" xmlns="http://www.w3.org/2000/svg">
  <defs>
    <path d="M24 0L24 0L24 24L0 24L0 0L24 0Z" id="path_1" />
    <clipPath id="clip_1">
      <use xlink:href="#path_1" />
    </clipPath>
  </defs>
  <g id="Lock 2" clip-path="url(#clip_1)">
    <path d="M24 0L24 0L24 24L0 24L0 0L24 0Z" id="Lock-2" fill="none" stroke="none" />
    <path d="M12 1C8.67619 1 6 3.67619 6 7L6 8C4.90694 8 4 8.90694 4 10L4 20C4 21.0931 4.90694 22 6 22L18 22C19.0931 22 20 21.0931 20 20L20 10C20 8.90694 19.0931 8 18 8L18 7C18 3.67619 15.3238 1 12 1L12 1ZM12 3C14.2762 3 16 4.72381 16 7L16 8L8 8L8 7C8 4.72381 9.72381 3 12 3L12 3ZM6 10L18 10L18 20L6 20L6 10L6 10ZM12 13C10.9 13 10 13.9 10 15C10 16.1 10.9 17 12 17C13.1 17 14 16.1 14 15C14 13.9 13.1 13 12 13L12 13Z" id="Shape" fill="#FFFFFF" fill-rule="evenodd" stroke="none" />
  </g>
</svg>