<?xml version="1.0" encoding="utf-8"?>
<svg width="24px" height="24px" viewBox="0 0 24 24" version="1.1" xmlns:xlink="http://www.w3.org/1999/xlink" xmlns="http://www.w3.org/2000/svg">
  <defs>
    <path d="M24 0L24 0L24 24L0 24L0 0L24 0Z" id="path_1" />
    <clipPath id="clip_1">
      <use xlink:href="#path_1" />
    </clipPath>
  </defs>
  <g id="Search" clip-path="url(#clip_1)">
    <path d="M24 0L24 0L24 24L0 24L0 0L24 0Z" id="Search" fill="none" stroke="none" />
    <path d="M10.25 3C6.25778 3 3 6.25778 3 10.25C3 14.2422 6.25778 17.5 10.25 17.5C11.8866 17.5 13.3945 16.9465 14.6104 16.0254L19.293 20.707C19.5438 20.9683 19.9162 21.0735 20.2667 20.9821C20.6171 20.8908 20.8908 20.6171 20.9821 20.2667C21.0735 19.9162 20.9683 19.5438 20.707 19.293L16.0254 14.6104C16.9465 13.3945 17.5 11.8866 17.5 10.25C17.5 6.25778 14.2422 3 10.25 3L10.25 3ZM10.25 5C13.1613 5 15.5 7.33866 15.5 10.25C15.5 11.6479 14.957 12.9103 14.0742 13.8486C13.9883 13.9108 13.9128 13.9863 13.8506 14.0723C12.9121 14.9562 11.6489 15.5 10.25 15.5C7.33866 15.5 5 13.1613 5 10.25C5 7.33866 7.33866 5 10.25 5L10.25 5Z" id="Shape" fill="#000000" fill-rule="evenodd" stroke="none" />
  </g>
</svg>