<?xml version="1.0" encoding="utf-8"?>
<svg width="24px" height="24px" viewBox="0 0 24 24" version="1.1" xmlns:xlink="http://www.w3.org/1999/xlink" xmlns="http://www.w3.org/2000/svg">
  <defs>
    <path d="M24 0L24 0L24 24L0 24L0 0L24 0Z" id="path_1" />
    <clipPath id="clip_1">
      <use xlink:href="#path_1" />
    </clipPath>
  </defs>
  <g id="Group-14">
    <g id="Settings" clip-path="url(#clip_1)">
      <path d="M24 0L24 0L24 24L0 24L0 0L24 0Z" id="Settings" fill="none" stroke="none" />
      <path d="M10.6584 0.959961C10.4235 0.960086 10.2231 1.13028 10.185 1.36215L9.71813 4.22059C9.15673 4.3839 8.6214 4.60425 8.11688 4.87871L5.75813 3.19402C5.56743 3.05785 5.3063 3.07925 5.14031 3.24465L3.27281 5.11027C3.10808 5.27512 3.08554 5.53448 3.21938 5.72527L4.87875 8.09902C4.60006 8.60649 4.37482 9.14484 4.2075 9.71152L1.36125 10.185C1.13013 10.2239 0.96091 10.424 0.960938 10.6584L0.960938 13.2984C0.960513 13.5313 1.1273 13.7309 1.35656 13.7718L4.20469 14.2762C4.3711 14.8419 4.59491 15.3806 4.87406 15.8887L3.19406 18.239C3.05789 18.4297 3.07929 18.6909 3.24469 18.8568L5.11125 20.7243C5.27572 20.8889 5.53449 20.9118 5.72531 20.7787L8.10375 19.1137C8.60976 19.3898 9.1464 19.6118 9.70969 19.7765L10.185 22.6387C10.2235 22.8702 10.4238 23.0399 10.6584 23.04L13.2984 23.04C13.5316 23.0403 13.7313 22.873 13.7719 22.6434L14.2809 19.77C14.8419 19.6027 15.376 19.3774 15.8794 19.0996L18.2738 20.7796C18.4645 20.9135 18.7239 20.8909 18.8888 20.7262L20.7553 18.8578C20.9215 18.6913 20.9425 18.4289 20.805 18.2381L19.0978 15.8681C19.3708 15.3671 19.5907 14.8362 19.7541 14.279L22.6425 13.7728C22.8721 13.7322 23.0394 13.5325 23.0391 13.2993L23.0391 10.6593C23.0389 10.4244 22.8688 10.224 22.6369 10.1859L19.7531 9.71434C19.5886 9.1578 19.3681 8.62783 19.095 8.12715L20.7788 5.72809C20.9126 5.53729 20.89 5.27794 20.7253 5.11309L18.8578 3.24652C18.6913 3.08038 18.429 3.05935 18.2381 3.19684L15.8747 4.89652C15.3711 4.61987 14.8367 4.3958 14.2744 4.22996L13.7719 1.35746C13.7317 1.12746 13.5319 0.959699 13.2984 0.959961L10.6584 0.959961L10.6584 0.959961ZM11.0672 1.91996L12.8953 1.91996L13.3734 4.64902C13.4059 4.83603 13.5456 4.98632 13.7297 5.03246C14.4317 5.2074 15.091 5.48471 15.6928 5.84902C15.8573 5.94868 16.0654 5.94056 16.2216 5.8284L18.4678 4.21402L19.7606 5.50684L18.1613 7.7859C18.0521 7.94123 18.0448 8.14628 18.1425 8.30902C18.5032 8.90947 18.7768 9.56462 18.9516 10.2628C18.9981 10.4486 19.1506 10.589 19.3397 10.62L22.0791 11.0681L22.0791 12.8962L19.3341 13.3781C19.1469 13.4112 18.9969 13.5516 18.9516 13.7362C18.7788 14.4335 18.5051 15.0886 18.1444 15.689C18.0454 15.8535 18.0539 16.061 18.1659 16.2168L19.7878 18.4678L18.495 19.7615L16.2197 18.165C16.0636 18.0556 15.8575 18.049 15.6947 18.1481C15.0959 18.5124 14.4359 18.791 13.7363 18.9684C13.553 19.0146 13.414 19.1639 13.3809 19.35L12.8963 22.08L11.0653 22.08L10.6134 19.3622C10.582 19.1732 10.4412 19.021 10.2553 18.975C9.55289 18.8018 8.89061 18.5249 8.28469 18.1612C8.12217 18.0639 7.91762 18.0712 7.7625 18.18L5.505 19.7615L4.21125 18.4659L5.80688 16.2356C5.91834 16.0794 5.92608 15.8718 5.82656 15.7078C5.45887 15.1002 5.18079 14.438 5.00531 13.7325C4.95945 13.5489 4.81003 13.4094 4.62375 13.3762L1.92094 12.8962L1.92094 11.0653L4.62188 10.6162C4.81057 10.5849 4.96269 10.4446 5.00906 10.259C5.18605 9.55107 5.464 8.88895 5.83031 8.28277C5.92901 8.12017 5.92239 7.91463 5.81344 7.75871L4.23656 5.50496L5.53125 4.21121L7.76906 5.81059C7.92465 5.92152 8.13121 5.92963 8.295 5.83121C8.89772 5.46922 9.56154 5.19456 10.2647 5.02215C10.4515 4.97615 10.5929 4.82302 10.6238 4.63309L11.0672 1.91996L11.0672 1.91996ZM12 8.15996C9.88491 8.15996 8.16 9.88487 8.16 12C8.16 14.115 9.88491 15.84 12 15.84C14.1151 15.84 15.84 14.115 15.84 12C15.84 9.88487 14.1151 8.15996 12 8.15996L12 8.15996ZM12 9.11996C13.5963 9.11996 14.88 10.4037 14.88 12C14.88 13.5962 13.5963 14.88 12 14.88C10.4037 14.88 9.12 13.5962 9.12 12C9.12 10.4037 10.4037 9.11996 12 9.11996L12 9.11996Z" id="Shape" fill="#000000" fill-rule="evenodd" stroke="none" />
    </g>
  </g>
</svg>